<svg width="26" height="26" viewBox="0 0 26 26" fill="none" xmlns="http://www.w3.org/2000/svg">
<path d="M18.8126 16.7809C18.1036 16.7809 17.4493 17.0297 16.9369 17.4451L11.7825 13.7161C11.8688 13.2424 11.8688 12.757 11.7825 12.2832L16.9369 8.55423C17.4493 8.96967 18.1036 9.21844 18.8126 9.21844C20.4594 9.21844 21.7978 7.88008 21.7978 6.23324C21.7978 4.58641 20.4594 3.24805 18.8126 3.24805C17.1658 3.24805 15.8274 4.58641 15.8274 6.23324C15.8274 6.52181 15.8672 6.79794 15.9443 7.06164L11.0486 10.6066C10.3222 9.64383 9.16792 9.01943 7.86687 9.01943C5.66777 9.01943 3.8866 10.8006 3.8866 12.9997C3.8866 15.1988 5.66777 16.98 7.86687 16.98C9.16792 16.98 10.3222 16.3556 11.0486 15.3928L15.9443 18.9377C15.8672 19.2014 15.8274 19.4801 15.8274 19.7661C15.8274 21.413 17.1658 22.7513 18.8126 22.7513C20.4594 22.7513 21.7978 21.413 21.7978 19.7661C21.7978 18.1193 20.4594 16.7809 18.8126 16.7809ZM18.8126 4.93966C19.5265 4.93966 20.1062 5.51928 20.1062 6.23324C20.1062 6.9472 19.5265 7.52683 18.8126 7.52683C18.0986 7.52683 17.519 6.9472 17.519 6.23324C17.519 5.51928 18.0986 4.93966 18.8126 4.93966ZM7.86687 15.1888C6.66035 15.1888 5.67772 14.2062 5.67772 12.9997C5.67772 11.7932 6.66035 10.8105 7.86687 10.8105C9.07338 10.8105 10.056 11.7932 10.056 12.9997C10.056 14.2062 9.07338 15.1888 7.86687 15.1888ZM18.8126 21.0597C18.0986 21.0597 17.519 20.4801 17.519 19.7661C17.519 19.0522 18.0986 18.4726 18.8126 18.4726C19.5265 18.4726 20.1062 19.0522 20.1062 19.7661C20.1062 20.4801 19.5265 21.0597 18.8126 21.0597Z" fill="white"/>
</svg>
