<svg width="33" height="26" viewBox="0 0 33 26" fill="none" xmlns="http://www.w3.org/2000/svg">
<g clip-path="url(#clip0_5536_15496)">
<path d="M24.3696 10.86L31.2396 10.26C31.2903 10.2545 31.3416 10.2593 31.3904 10.274C31.4393 10.2888 31.4846 10.3132 31.5238 10.3459C31.563 10.3786 31.5953 10.4188 31.6186 10.4642C31.6419 10.5095 31.6558 10.5592 31.6596 10.61L32.2596 17.48C32.264 17.555 32.2467 17.6297 32.2098 17.6951C32.1728 17.7605 32.1177 17.8138 32.0512 17.8486C31.9847 17.8835 31.9095 17.8984 31.8347 17.8915C31.7599 17.8847 31.6887 17.8564 31.6296 17.81L30.3596 16.75C30.2902 16.694 30.2037 16.6635 30.1146 16.6635C30.0254 16.6635 29.9389 16.694 29.8696 16.75L19.9896 24.75C19.919 24.8024 19.8327 24.8294 19.7449 24.8266C19.657 24.8238 19.5727 24.7915 19.5055 24.7347C19.4384 24.678 19.3923 24.6002 19.3749 24.5141C19.3575 24.4279 19.3697 24.3384 19.4096 24.26L25.5296 13.1C25.5722 13.0202 25.5865 12.9283 25.5702 12.8393C25.5538 12.7503 25.5078 12.6695 25.4396 12.61L24.1296 11.54C24.0666 11.4911 24.0206 11.4235 23.9981 11.347C23.9756 11.2704 23.9778 11.1887 24.0044 11.1135C24.0309 11.0383 24.0805 10.9733 24.146 10.9278C24.2116 10.8823 24.2898 10.8586 24.3696 10.86V10.86Z" fill="#BCBCBC"/>
<path d="M7.88971 10.86L1.01971 10.26C0.968988 10.2545 0.917674 10.2593 0.868831 10.274C0.819989 10.2888 0.774619 10.3132 0.735424 10.3459C0.696228 10.3786 0.664014 10.4188 0.640697 10.4642C0.617381 10.5095 0.603442 10.5592 0.599712 10.61L-0.000290085 17.48C-0.0047445 17.555 0.0125503 17.6297 0.0495108 17.6951C0.0864712 17.7605 0.141525 17.8138 0.208061 17.8486C0.274597 17.8835 0.349781 17.8984 0.424579 17.8915C0.499378 17.8847 0.57061 17.8564 0.629711 17.81L1.89971 16.75C1.96908 16.694 2.05555 16.6635 2.14471 16.6635C2.23387 16.6635 2.32034 16.694 2.38971 16.75L12.2697 24.75C12.3403 24.8024 12.4265 24.8294 12.5144 24.8266C12.6023 24.8238 12.6866 24.7915 12.7538 24.7347C12.8209 24.678 12.8669 24.6002 12.8843 24.5141C12.9018 24.4279 12.8896 24.3384 12.8497 24.26L6.72971 13.1C6.68708 13.0202 6.67277 12.9283 6.68911 12.8393C6.70546 12.7503 6.7515 12.6695 6.81971 12.61L8.12971 11.54C8.19271 11.4911 8.23871 11.4235 8.26117 11.347C8.28364 11.2704 8.28144 11.1887 8.25489 11.1135C8.22834 11.0383 8.17877 10.9733 8.11323 10.9278C8.04768 10.8823 7.96948 10.8586 7.88971 10.86V10.86Z" fill="#BCBCBC"/>
<path d="M23.2796 6.93024L16.5096 0.16024C16.4085 0.06009 16.2719 0.00390625 16.1296 0.00390625C15.9873 0.00390625 15.8507 0.06009 15.7496 0.16024L8.97959 6.93024C8.9048 7.00574 8.85396 7.10163 8.83342 7.2059C8.81288 7.31017 8.82357 7.41818 8.86414 7.5164C8.90471 7.61463 8.97336 7.6987 9.06149 7.75808C9.14962 7.81746 9.25332 7.84952 9.35959 7.85024H11.6496C11.7739 7.84993 11.8946 7.89255 11.9911 7.97089C12.0877 8.04924 12.1543 8.1585 12.1796 8.28024L15.5896 25.5702C15.6136 25.6932 15.6796 25.804 15.7763 25.8836C15.873 25.9632 15.9943 26.0068 16.1196 26.0068C16.2449 26.0068 16.3662 25.9632 16.4629 25.8836C16.5596 25.804 16.6256 25.6932 16.6496 25.5702L20.0596 8.28024C20.0849 8.1585 20.1515 8.04924 20.248 7.97089C20.3446 7.89255 20.4652 7.84993 20.5896 7.85024H22.8996C23.0059 7.84952 23.1096 7.81746 23.1977 7.75808C23.2858 7.6987 23.3545 7.61463 23.395 7.5164C23.4356 7.41818 23.4463 7.31017 23.4258 7.2059C23.4052 7.10163 23.3544 7.00574 23.2796 6.93024V6.93024Z" fill="#BCBCBC"/>
</g>
<defs>
<clipPath id="clip0_5536_15496">
<rect width="32.27" height="26" fill="white"/>
</clipPath>
</defs>
</svg>
